<?xml version="1.0" encoding="UTF-8"?>
<svg width="81px" height="74px" viewBox="0 0 81 74" version="1.1" xmlns="http://www.w3.org/2000/svg" xmlns:xlink="http://www.w3.org/1999/xlink">
    <!-- Generator: Sketch 50.2 (55047) - http://www.bohemiancoding.com/sketch -->
    <title>bmo-house</title>
    <desc>Created with Sketch.</desc>
    <defs></defs>
    <g id="Page-1" stroke="none" stroke-width="1" fill="none" fill-rule="evenodd">
        <g id="Group-4" transform="translate(-1317.000000, -418.000000)" fill="#0179C2">
            <path d="M1359.33568,418.782816 C1358.75554,418.278122 1358.01028,418 1357.23718,418 C1356.4591,418 1355.71037,418.281068 1355.12874,418.791408 L1318.06301,451.311552 C1317.08451,452.169974 1316.73961,453.558375 1317.20462,454.766597 C1317.66987,455.97482 1318.86198,456.786357 1320.17121,456.786357 L1329.1702,456.786357 L1329.19133,488.603709 C1329.18885,489.429974 1329.52654,490.239547 1330.11762,490.824757 C1330.7174,491.418804 1331.51562,491.745775 1332.36506,491.745775 L1348.25162,491.745775 C1350.00173,491.745775 1351.42535,490.339946 1351.42535,488.612546 L1351.42535,465.096878 L1363.32926,465.096878 L1363.32926,488.612546 C1363.32926,490.339946 1364.75287,491.745775 1366.50299,491.745775 L1382.5743,491.745775 C1384.32417,491.745775 1385.74753,490.339946 1385.74753,488.612546 L1385.74753,456.426492 L1394.1925,456.426492 C1395.50471,456.426492 1396.69756,455.612501 1397.16157,454.400841 C1397.62534,453.189427 1397.27571,451.799799 1396.29149,450.943341 L1359.33568,418.782816 Z" id="bmo-house"></path>
        </g>
    </g>
</svg>